# xmcd CD database file
#
# Track frame offsets:
#	150
#	16595
#	33587
#	52737
#	68937
#	82782
#	97465
#	113950
#	126840
#	145972
#	159917
#	178017
#	198497
#	212815
#
# Disc length: 3170 seconds
#
# Revision: 3
# Processed by: cddbd v1.5.1PL0 Copyright (c) Steve Scherf et al.
# Submitted via: CDex 1.51
#
DISCID=bf0c600e
DTITLE=V／A - The Songs Of Jimmie Rodgers-A Tribute
DYEAR=1997
DGENRE=Country
TTITLE0=Dreaming With Tears In My Eyes - Bono
TTITLE1=Any Old Time - Alison Krauss＆Union Station
TTITLE2=Waiting For A Train - Dickey Betts
TTITLE3=Somewhere Down Below The Mason Dixon Line - Mary Chapin Carpenter
TTITLE4=Miss Mississippi And You - David Ball
TTITLE5=My Blue Eyed Jane - Bob Dylan
TTITLE6=Peach Pickin' Time Down In Georgia - Willie Nelson
TTITLE7=In The Jailhouse Now - Steve Earle＆V-Roys (The)
TTITLE8=Blue Yodel # 9 - Jerry Garcia, David Grisman＆John Kahn
TTITLE9=Hobo Bill's Last Ride - Iris Dement
TTITLE10=Gambling Bar Room Blues - John Mellencamp
TTITLE11=Mule Skinner Blues - Van Morrison
TTITLE12=Why Should I Be Lonely - Aaron Neville
TTITLE13=T For Texas - Dwight Yoakam
EXTD=YEAR: 1997
EXTT0=\n
EXTT1=\n
EXTT2=\n
EXTT3=\n
EXTT4=\n
EXTT5=\n
EXTT6=\n
EXTT7=\n
EXTT8=\n
EXTT9=\n
EXTT10=\n
EXTT11=\n
EXTT12=\n
EXTT13=
PLAYORDER=
